# xmcd CD database file
#
# Track frame offsets:
#	150
#	14042
#	29565
#	45750
#	59275
#	74565
#	84070
#	97277
#	110952
#	125595
#	147950
#	164502
#	181925
#	196767
#
# Disc length: 2835 seconds
#
# Revision: 0
# Processed by: cddbd v1.4PL0 Copyright (c) Steve Scherf et al.
# Submitted via: Feurio! 1.61 - http://www.feurio.com
#
DISCID=c90b110e
DTITLE=Various Artist - Westwärts ( Deutsche Country- und Westernsongs ) ( CD 2 ) 
DYEAR=1900
DGENRE=
TTITLE0=Ronny - San Antonio Rose
TTITLE1=Rio Carter - Wirf das Glück nicht einfach fort
TTITLE2=Tom Astor - Angie
TTITLE3=Mr. Felix - Westwärts
TTITLE4=West Forest Country Boys - Die erste Nacht mit heißer Fracht
TTITLE5=Ralf Paulsen - Bonanza
TTITLE6=Hank Stone - Truck Drivin' Girl
TTITLE7=Tom Astor - Die Frau mit dem Gurt
TTITLE8=Eddie Toledo - Ich trinke keinen Tropfen mehr
TTITLE9=Mr. Felix - Kameraden der Straße
TTITLE10=Ralf Paulsen - Mein guter alter Freund
TTITLE11=Hank Stone - Blaue Blume
TTITLE12=Johnny Hill - Deine Freunde sind meine Freunde
TTITLE13=Sammy's Saloon - Wir sind die Fahrer
EXTD=
EXTT0=
EXTT1=
EXTT2=
EXTT3=
EXTT4=
EXTT5=
EXTT6=
EXTT7=
EXTT8=
EXTT9=
EXTT10=
EXTT11=
EXTT12=
EXTT13=
PLAYORDER=
